<mxfile host="Electron" agent="Mozilla/5.0 (Windows NT 10.0; Win64; x64) AppleWebKit/537.36 (KHTML, like Gecko) draw.io/26.0.4 Chrome/128.0.6613.186 Electron/32.2.5 Safari/537.36" version="26.0.4" pages="10">
  <diagram name="일정 생성 SD" id="E02ik5y2Az76wqRcjeZ7">
    <mxGraphModel dx="1366" dy="796" grid="1" gridSize="10" guides="1" tooltips="1" connect="1" arrows="1" fold="1" page="1" pageScale="1" pageWidth="827" pageHeight="1169" math="0" shadow="0">
      <root>
        <mxCell id="0" />
        <mxCell id="1" parent="0" />
        <mxCell id="cgi0WoZ7vX7oYKPmhnqP-1" value="클라이언트" style="shape=umlLifeline;perimeter=lifelinePerimeter;whiteSpace=wrap;html=1;container=1;dropTarget=0;collapsible=0;recursiveResize=0;outlineConnect=0;portConstraint=eastwest;newEdgeStyle={&quot;curved&quot;:0,&quot;rounded&quot;:0};" vertex="1" parent="1">
          <mxGeometry x="100" y="280" width="100" height="300" as="geometry" />
        </mxCell>
        <mxCell id="cgi0WoZ7vX7oYKPmhnqP-2" value="서버" style="shape=umlLifeline;perimeter=lifelinePerimeter;whiteSpace=wrap;html=1;container=1;dropTarget=0;collapsible=0;recursiveResize=0;outlineConnect=0;portConstraint=eastwest;newEdgeStyle={&quot;curved&quot;:0,&quot;rounded&quot;:0};" vertex="1" parent="1">
          <mxGeometry x="630" y="280" width="100" height="300" as="geometry" />
        </mxCell>
        <mxCell id="cgi0WoZ7vX7oYKPmhnqP-3" value="" style="html=1;points=[[0,0,0,0,5],[0,1,0,0,-5],[1,0,0,0,5],[1,1,0,0,-5]];perimeter=orthogonalPerimeter;outlineConnect=0;targetShapes=umlLifeline;portConstraint=eastwest;newEdgeStyle={&quot;curved&quot;:0,&quot;rounded&quot;:0};" vertex="1" parent="cgi0WoZ7vX7oYKPmhnqP-2">
          <mxGeometry x="45" y="80" width="10" height="200" as="geometry" />
        </mxCell>
        <mxCell id="cgi0WoZ7vX7oYKPmhnqP-4" value="" style="html=1;points=[[0,0,0,0,5],[0,1,0,0,-5],[1,0,0,0,5],[1,1,0,0,-5]];perimeter=orthogonalPerimeter;outlineConnect=0;targetShapes=umlLifeline;portConstraint=eastwest;newEdgeStyle={&quot;curved&quot;:0,&quot;rounded&quot;:0};" vertex="1" parent="cgi0WoZ7vX7oYKPmhnqP-2">
          <mxGeometry x="50" y="130" width="10" height="40" as="geometry" />
        </mxCell>
        <mxCell id="cgi0WoZ7vX7oYKPmhnqP-5" value="일정 유효성 검증" style="html=1;align=left;spacingLeft=2;endArrow=block;rounded=0;edgeStyle=orthogonalEdgeStyle;curved=0;rounded=0;" edge="1" parent="cgi0WoZ7vX7oYKPmhnqP-2" target="cgi0WoZ7vX7oYKPmhnqP-4">
          <mxGeometry relative="1" as="geometry">
            <mxPoint x="55" y="110" as="sourcePoint" />
            <Array as="points">
              <mxPoint x="85" y="140" />
            </Array>
          </mxGeometry>
        </mxCell>
        <mxCell id="cgi0WoZ7vX7oYKPmhnqP-6" value="일정 추가 요청(세션 ID, 팀 ID, 일정 이름, 일정 시작 시간, 일정 종료 시간, 내 할 일 List)" style="html=1;verticalAlign=bottom;endArrow=block;curved=0;rounded=0;entryX=0;entryY=0;entryDx=0;entryDy=5;" edge="1" target="cgi0WoZ7vX7oYKPmhnqP-3" parent="1">
          <mxGeometry x="0.0019" relative="1" as="geometry">
            <mxPoint x="150" y="365" as="sourcePoint" />
            <mxPoint as="offset" />
          </mxGeometry>
        </mxCell>
        <mxCell id="cgi0WoZ7vX7oYKPmhnqP-7" value="일정 생성 성공 여부 반환" style="html=1;verticalAlign=bottom;endArrow=open;dashed=1;endSize=8;curved=0;rounded=0;exitX=0;exitY=1;exitDx=0;exitDy=-5;" edge="1" source="cgi0WoZ7vX7oYKPmhnqP-3" target="cgi0WoZ7vX7oYKPmhnqP-1" parent="1">
          <mxGeometry relative="1" as="geometry">
            <mxPoint x="150" y="435" as="targetPoint" />
          </mxGeometry>
        </mxCell>
      </root>
    </mxGraphModel>
  </diagram>
  <diagram id="-MhmVIKvbeb-sOxghcRn" name="내가 속한 팀의 모든 일정 조회 SD">
    <mxGraphModel dx="2074" dy="1196" grid="1" gridSize="10" guides="1" tooltips="1" connect="1" arrows="1" fold="1" page="1" pageScale="1" pageWidth="827" pageHeight="1169" math="0" shadow="0">
      <root>
        <mxCell id="0" />
        <mxCell id="1" parent="0" />
        <mxCell id="pWcInXvdqL-ITTsXa3-Y-1" value="클라이언트" style="shape=umlLifeline;perimeter=lifelinePerimeter;whiteSpace=wrap;html=1;container=1;dropTarget=0;collapsible=0;recursiveResize=0;outlineConnect=0;portConstraint=eastwest;newEdgeStyle={&quot;curved&quot;:0,&quot;rounded&quot;:0};" vertex="1" parent="1">
          <mxGeometry x="100" y="280" width="100" height="300" as="geometry" />
        </mxCell>
        <mxCell id="pWcInXvdqL-ITTsXa3-Y-2" value="서버" style="shape=umlLifeline;perimeter=lifelinePerimeter;whiteSpace=wrap;html=1;container=1;dropTarget=0;collapsible=0;recursiveResize=0;outlineConnect=0;portConstraint=eastwest;newEdgeStyle={&quot;curved&quot;:0,&quot;rounded&quot;:0};" vertex="1" parent="1">
          <mxGeometry x="630" y="280" width="100" height="300" as="geometry" />
        </mxCell>
        <mxCell id="pWcInXvdqL-ITTsXa3-Y-3" value="" style="html=1;points=[[0,0,0,0,5],[0,1,0,0,-5],[1,0,0,0,5],[1,1,0,0,-5]];perimeter=orthogonalPerimeter;outlineConnect=0;targetShapes=umlLifeline;portConstraint=eastwest;newEdgeStyle={&quot;curved&quot;:0,&quot;rounded&quot;:0};" vertex="1" parent="pWcInXvdqL-ITTsXa3-Y-2">
          <mxGeometry x="45" y="80" width="10" height="200" as="geometry" />
        </mxCell>
        <mxCell id="pWcInXvdqL-ITTsXa3-Y-6" value="기간 일정 조회 요청(세션 ID, 시작 시점, 종료 시점)" style="html=1;verticalAlign=bottom;endArrow=block;curved=0;rounded=0;entryX=0;entryY=0;entryDx=0;entryDy=5;" edge="1" parent="1" target="pWcInXvdqL-ITTsXa3-Y-3">
          <mxGeometry x="0.0019" relative="1" as="geometry">
            <mxPoint x="150" y="365" as="sourcePoint" />
            <mxPoint as="offset" />
          </mxGeometry>
        </mxCell>
        <mxCell id="pWcInXvdqL-ITTsXa3-Y-7" value="해당 기간 안에 존재하는 특정 사용자의 모든 일정 리스트 반환" style="html=1;verticalAlign=bottom;endArrow=open;dashed=1;endSize=8;curved=0;rounded=0;exitX=0;exitY=1;exitDx=0;exitDy=-5;" edge="1" parent="1" source="pWcInXvdqL-ITTsXa3-Y-3" target="pWcInXvdqL-ITTsXa3-Y-1">
          <mxGeometry relative="1" as="geometry">
            <mxPoint x="150" y="435" as="targetPoint" />
          </mxGeometry>
        </mxCell>
      </root>
    </mxGraphModel>
  </diagram>
  <diagram id="yMYSxFFEmQlHy5gAS3Bj" name="특정 팀의 기간 일정 조회 SD">
    <mxGraphModel dx="2074" dy="1196" grid="1" gridSize="10" guides="1" tooltips="1" connect="1" arrows="1" fold="1" page="1" pageScale="1" pageWidth="827" pageHeight="1169" math="0" shadow="0">
      <root>
        <mxCell id="0" />
        <mxCell id="1" parent="0" />
        <mxCell id="8AdNo8G1oJRMzgH9gjfp-1" value="클라이언트" style="shape=umlLifeline;perimeter=lifelinePerimeter;whiteSpace=wrap;html=1;container=1;dropTarget=0;collapsible=0;recursiveResize=0;outlineConnect=0;portConstraint=eastwest;newEdgeStyle={&quot;curved&quot;:0,&quot;rounded&quot;:0};" parent="1" vertex="1">
          <mxGeometry x="100" y="280" width="100" height="300" as="geometry" />
        </mxCell>
        <mxCell id="8AdNo8G1oJRMzgH9gjfp-2" value="서버" style="shape=umlLifeline;perimeter=lifelinePerimeter;whiteSpace=wrap;html=1;container=1;dropTarget=0;collapsible=0;recursiveResize=0;outlineConnect=0;portConstraint=eastwest;newEdgeStyle={&quot;curved&quot;:0,&quot;rounded&quot;:0};" parent="1" vertex="1">
          <mxGeometry x="630" y="280" width="100" height="300" as="geometry" />
        </mxCell>
        <mxCell id="8AdNo8G1oJRMzgH9gjfp-3" value="" style="html=1;points=[[0,0,0,0,5],[0,1,0,0,-5],[1,0,0,0,5],[1,1,0,0,-5]];perimeter=orthogonalPerimeter;outlineConnect=0;targetShapes=umlLifeline;portConstraint=eastwest;newEdgeStyle={&quot;curved&quot;:0,&quot;rounded&quot;:0};" parent="8AdNo8G1oJRMzgH9gjfp-2" vertex="1">
          <mxGeometry x="45" y="80" width="10" height="200" as="geometry" />
        </mxCell>
        <mxCell id="8AdNo8G1oJRMzgH9gjfp-4" value="" style="html=1;points=[[0,0,0,0,5],[0,1,0,0,-5],[1,0,0,0,5],[1,1,0,0,-5]];perimeter=orthogonalPerimeter;outlineConnect=0;targetShapes=umlLifeline;portConstraint=eastwest;newEdgeStyle={&quot;curved&quot;:0,&quot;rounded&quot;:0};" parent="8AdNo8G1oJRMzgH9gjfp-2" vertex="1">
          <mxGeometry x="50" y="130" width="10" height="40" as="geometry" />
        </mxCell>
        <mxCell id="8AdNo8G1oJRMzgH9gjfp-5" value="팀 참가 여부 검증" style="html=1;align=left;spacingLeft=2;endArrow=block;rounded=0;edgeStyle=orthogonalEdgeStyle;curved=0;rounded=0;" parent="8AdNo8G1oJRMzgH9gjfp-2" target="8AdNo8G1oJRMzgH9gjfp-4" edge="1">
          <mxGeometry relative="1" as="geometry">
            <mxPoint x="55" y="110" as="sourcePoint" />
            <Array as="points">
              <mxPoint x="85" y="140" />
            </Array>
          </mxGeometry>
        </mxCell>
        <mxCell id="8AdNo8G1oJRMzgH9gjfp-6" value="기간 일정 조회 요청(세션 ID, 팀 ID, 시작 시점, 종료 시점)" style="html=1;verticalAlign=bottom;endArrow=block;curved=0;rounded=0;entryX=0;entryY=0;entryDx=0;entryDy=5;" parent="1" target="8AdNo8G1oJRMzgH9gjfp-3" edge="1">
          <mxGeometry x="0.0019" relative="1" as="geometry">
            <mxPoint x="150" y="365" as="sourcePoint" />
            <mxPoint as="offset" />
          </mxGeometry>
        </mxCell>
        <mxCell id="8AdNo8G1oJRMzgH9gjfp-7" value="해당 기간 안에 존재하는 해당 팀의 모든 일정 리스트 반환" style="html=1;verticalAlign=bottom;endArrow=open;dashed=1;endSize=8;curved=0;rounded=0;exitX=0;exitY=1;exitDx=0;exitDy=-5;" parent="1" source="8AdNo8G1oJRMzgH9gjfp-3" target="8AdNo8G1oJRMzgH9gjfp-1" edge="1">
          <mxGeometry relative="1" as="geometry">
            <mxPoint x="150" y="435" as="targetPoint" />
          </mxGeometry>
        </mxCell>
      </root>
    </mxGraphModel>
  </diagram>
  <diagram id="7EoOwk0y7Qhm8BpESRFI" name="가장 가까운 일정 조회 SD">
    <mxGraphModel dx="1434" dy="836" grid="1" gridSize="10" guides="1" tooltips="1" connect="1" arrows="1" fold="1" page="1" pageScale="1" pageWidth="827" pageHeight="1169" math="0" shadow="0">
      <root>
        <mxCell id="0" />
        <mxCell id="1" parent="0" />
        <mxCell id="ZSn-OzGOrT22hHT_l2mv-1" value="클라이언트" style="shape=umlLifeline;perimeter=lifelinePerimeter;whiteSpace=wrap;html=1;container=1;dropTarget=0;collapsible=0;recursiveResize=0;outlineConnect=0;portConstraint=eastwest;newEdgeStyle={&quot;curved&quot;:0,&quot;rounded&quot;:0};" vertex="1" parent="1">
          <mxGeometry x="100" y="280" width="100" height="300" as="geometry" />
        </mxCell>
        <mxCell id="ZSn-OzGOrT22hHT_l2mv-2" value="서버" style="shape=umlLifeline;perimeter=lifelinePerimeter;whiteSpace=wrap;html=1;container=1;dropTarget=0;collapsible=0;recursiveResize=0;outlineConnect=0;portConstraint=eastwest;newEdgeStyle={&quot;curved&quot;:0,&quot;rounded&quot;:0};" vertex="1" parent="1">
          <mxGeometry x="630" y="280" width="100" height="300" as="geometry" />
        </mxCell>
        <mxCell id="ZSn-OzGOrT22hHT_l2mv-3" value="" style="html=1;points=[[0,0,0,0,5],[0,1,0,0,-5],[1,0,0,0,5],[1,1,0,0,-5]];perimeter=orthogonalPerimeter;outlineConnect=0;targetShapes=umlLifeline;portConstraint=eastwest;newEdgeStyle={&quot;curved&quot;:0,&quot;rounded&quot;:0};" vertex="1" parent="ZSn-OzGOrT22hHT_l2mv-2">
          <mxGeometry x="45" y="80" width="10" height="200" as="geometry" />
        </mxCell>
        <mxCell id="ZSn-OzGOrT22hHT_l2mv-4" value="" style="html=1;points=[[0,0,0,0,5],[0,1,0,0,-5],[1,0,0,0,5],[1,1,0,0,-5]];perimeter=orthogonalPerimeter;outlineConnect=0;targetShapes=umlLifeline;portConstraint=eastwest;newEdgeStyle={&quot;curved&quot;:0,&quot;rounded&quot;:0};" vertex="1" parent="ZSn-OzGOrT22hHT_l2mv-2">
          <mxGeometry x="50" y="130" width="10" height="40" as="geometry" />
        </mxCell>
        <mxCell id="ZSn-OzGOrT22hHT_l2mv-5" value="해당 팀에 속해있는지 여부 검증" style="html=1;align=left;spacingLeft=2;endArrow=block;rounded=0;edgeStyle=orthogonalEdgeStyle;curved=0;rounded=0;" edge="1" parent="ZSn-OzGOrT22hHT_l2mv-2" target="ZSn-OzGOrT22hHT_l2mv-4">
          <mxGeometry relative="1" as="geometry">
            <mxPoint x="55" y="110" as="sourcePoint" />
            <Array as="points">
              <mxPoint x="85" y="140" />
            </Array>
          </mxGeometry>
        </mxCell>
        <mxCell id="ZSn-OzGOrT22hHT_l2mv-6" value="가장 가까운 일정 조회(세션 ID, 팀 ID, 현재 시점)" style="html=1;verticalAlign=bottom;endArrow=block;curved=0;rounded=0;entryX=0;entryY=0;entryDx=0;entryDy=5;" edge="1" target="ZSn-OzGOrT22hHT_l2mv-3" parent="1">
          <mxGeometry relative="1" as="geometry">
            <mxPoint x="150" y="365" as="sourcePoint" />
          </mxGeometry>
        </mxCell>
        <mxCell id="ZSn-OzGOrT22hHT_l2mv-7" value="&lt;span style=&quot;text-align: left;&quot;&gt;해당 팀의 24시간 내 가장 가까운 일정 반환&lt;/span&gt;" style="html=1;verticalAlign=bottom;endArrow=open;dashed=1;endSize=8;curved=0;rounded=0;exitX=0;exitY=1;exitDx=0;exitDy=-5;" edge="1" source="ZSn-OzGOrT22hHT_l2mv-3" target="ZSn-OzGOrT22hHT_l2mv-1" parent="1">
          <mxGeometry relative="1" as="geometry">
            <mxPoint x="150" y="435" as="targetPoint" />
          </mxGeometry>
        </mxCell>
      </root>
    </mxGraphModel>
  </diagram>
  <diagram id="ZNp_u9T_MdWXxgQ-zsyy" name="일정 수정 SD">
    <mxGraphModel dx="1434" dy="836" grid="1" gridSize="10" guides="1" tooltips="1" connect="1" arrows="1" fold="1" page="1" pageScale="1" pageWidth="827" pageHeight="1169" math="0" shadow="0">
      <root>
        <mxCell id="0" />
        <mxCell id="1" parent="0" />
        <mxCell id="C28vOUOIBSY_XTbIpBBF-1" value="클라이언트" style="shape=umlLifeline;perimeter=lifelinePerimeter;whiteSpace=wrap;html=1;container=1;dropTarget=0;collapsible=0;recursiveResize=0;outlineConnect=0;portConstraint=eastwest;newEdgeStyle={&quot;curved&quot;:0,&quot;rounded&quot;:0};" vertex="1" parent="1">
          <mxGeometry x="100" y="280" width="100" height="300" as="geometry" />
        </mxCell>
        <mxCell id="C28vOUOIBSY_XTbIpBBF-2" value="서버" style="shape=umlLifeline;perimeter=lifelinePerimeter;whiteSpace=wrap;html=1;container=1;dropTarget=0;collapsible=0;recursiveResize=0;outlineConnect=0;portConstraint=eastwest;newEdgeStyle={&quot;curved&quot;:0,&quot;rounded&quot;:0};" vertex="1" parent="1">
          <mxGeometry x="630" y="280" width="100" height="300" as="geometry" />
        </mxCell>
        <mxCell id="C28vOUOIBSY_XTbIpBBF-3" value="" style="html=1;points=[[0,0,0,0,5],[0,1,0,0,-5],[1,0,0,0,5],[1,1,0,0,-5]];perimeter=orthogonalPerimeter;outlineConnect=0;targetShapes=umlLifeline;portConstraint=eastwest;newEdgeStyle={&quot;curved&quot;:0,&quot;rounded&quot;:0};" vertex="1" parent="C28vOUOIBSY_XTbIpBBF-2">
          <mxGeometry x="45" y="80" width="10" height="200" as="geometry" />
        </mxCell>
        <mxCell id="C28vOUOIBSY_XTbIpBBF-4" value="" style="html=1;points=[[0,0,0,0,5],[0,1,0,0,-5],[1,0,0,0,5],[1,1,0,0,-5]];perimeter=orthogonalPerimeter;outlineConnect=0;targetShapes=umlLifeline;portConstraint=eastwest;newEdgeStyle={&quot;curved&quot;:0,&quot;rounded&quot;:0};" vertex="1" parent="C28vOUOIBSY_XTbIpBBF-2">
          <mxGeometry x="50" y="130" width="10" height="40" as="geometry" />
        </mxCell>
        <mxCell id="C28vOUOIBSY_XTbIpBBF-5" value="일정의 작성자인지 검증" style="html=1;align=left;spacingLeft=2;endArrow=block;rounded=0;edgeStyle=orthogonalEdgeStyle;curved=0;rounded=0;" edge="1" parent="C28vOUOIBSY_XTbIpBBF-2" target="C28vOUOIBSY_XTbIpBBF-4">
          <mxGeometry relative="1" as="geometry">
            <mxPoint x="55" y="110" as="sourcePoint" />
            <Array as="points">
              <mxPoint x="85" y="140" />
            </Array>
          </mxGeometry>
        </mxCell>
        <mxCell id="C28vOUOIBSY_XTbIpBBF-6" value="일정 수정 요청 (세션 ID, 일정 ID, 변경하고자 하는 내용)" style="html=1;verticalAlign=bottom;endArrow=block;curved=0;rounded=0;entryX=0;entryY=0;entryDx=0;entryDy=5;" edge="1" target="C28vOUOIBSY_XTbIpBBF-3" parent="1">
          <mxGeometry relative="1" as="geometry">
            <mxPoint x="150" y="365" as="sourcePoint" />
          </mxGeometry>
        </mxCell>
        <mxCell id="C28vOUOIBSY_XTbIpBBF-7" value="일정 수정 성공 여부 반환" style="html=1;verticalAlign=bottom;endArrow=open;dashed=1;endSize=8;curved=0;rounded=0;exitX=0;exitY=1;exitDx=0;exitDy=-5;" edge="1" source="C28vOUOIBSY_XTbIpBBF-3" target="C28vOUOIBSY_XTbIpBBF-1" parent="1">
          <mxGeometry relative="1" as="geometry">
            <mxPoint x="150" y="435" as="targetPoint" />
          </mxGeometry>
        </mxCell>
      </root>
    </mxGraphModel>
  </diagram>
  <diagram id="4NIQma3MRG1YII-N806V" name="일정 삭제 SD">
    <mxGraphModel dx="1434" dy="836" grid="1" gridSize="10" guides="1" tooltips="1" connect="1" arrows="1" fold="1" page="1" pageScale="1" pageWidth="827" pageHeight="1169" math="0" shadow="0">
      <root>
        <mxCell id="0" />
        <mxCell id="1" parent="0" />
        <mxCell id="whQVbNXMnP0Vr2NTKK1I-1" value="클라이언트" style="shape=umlLifeline;perimeter=lifelinePerimeter;whiteSpace=wrap;html=1;container=1;dropTarget=0;collapsible=0;recursiveResize=0;outlineConnect=0;portConstraint=eastwest;newEdgeStyle={&quot;curved&quot;:0,&quot;rounded&quot;:0};" vertex="1" parent="1">
          <mxGeometry x="100" y="280" width="100" height="300" as="geometry" />
        </mxCell>
        <mxCell id="whQVbNXMnP0Vr2NTKK1I-2" value="서버" style="shape=umlLifeline;perimeter=lifelinePerimeter;whiteSpace=wrap;html=1;container=1;dropTarget=0;collapsible=0;recursiveResize=0;outlineConnect=0;portConstraint=eastwest;newEdgeStyle={&quot;curved&quot;:0,&quot;rounded&quot;:0};" vertex="1" parent="1">
          <mxGeometry x="630" y="280" width="100" height="300" as="geometry" />
        </mxCell>
        <mxCell id="whQVbNXMnP0Vr2NTKK1I-3" value="" style="html=1;points=[[0,0,0,0,5],[0,1,0,0,-5],[1,0,0,0,5],[1,1,0,0,-5]];perimeter=orthogonalPerimeter;outlineConnect=0;targetShapes=umlLifeline;portConstraint=eastwest;newEdgeStyle={&quot;curved&quot;:0,&quot;rounded&quot;:0};" vertex="1" parent="whQVbNXMnP0Vr2NTKK1I-2">
          <mxGeometry x="45" y="80" width="10" height="200" as="geometry" />
        </mxCell>
        <mxCell id="whQVbNXMnP0Vr2NTKK1I-4" value="" style="html=1;points=[[0,0,0,0,5],[0,1,0,0,-5],[1,0,0,0,5],[1,1,0,0,-5]];perimeter=orthogonalPerimeter;outlineConnect=0;targetShapes=umlLifeline;portConstraint=eastwest;newEdgeStyle={&quot;curved&quot;:0,&quot;rounded&quot;:0};" vertex="1" parent="whQVbNXMnP0Vr2NTKK1I-2">
          <mxGeometry x="50" y="130" width="10" height="40" as="geometry" />
        </mxCell>
        <mxCell id="whQVbNXMnP0Vr2NTKK1I-5" value="일정의 작성자인지 검증&lt;div&gt;혹은 일정의 팀장인지 검증&lt;/div&gt;" style="html=1;align=left;spacingLeft=2;endArrow=block;rounded=0;edgeStyle=orthogonalEdgeStyle;curved=0;rounded=0;" edge="1" parent="whQVbNXMnP0Vr2NTKK1I-2" target="whQVbNXMnP0Vr2NTKK1I-4">
          <mxGeometry x="0.0118" relative="1" as="geometry">
            <mxPoint x="55" y="110" as="sourcePoint" />
            <Array as="points">
              <mxPoint x="85" y="140" />
            </Array>
            <mxPoint as="offset" />
          </mxGeometry>
        </mxCell>
        <mxCell id="whQVbNXMnP0Vr2NTKK1I-6" value="일정 삭제 요청 (세션 ID, 일정 ID)" style="html=1;verticalAlign=bottom;endArrow=block;curved=0;rounded=0;entryX=0;entryY=0;entryDx=0;entryDy=5;" edge="1" target="whQVbNXMnP0Vr2NTKK1I-3" parent="1">
          <mxGeometry relative="1" as="geometry">
            <mxPoint x="150" y="365" as="sourcePoint" />
          </mxGeometry>
        </mxCell>
        <mxCell id="whQVbNXMnP0Vr2NTKK1I-7" value="일정 삭제 성공 여부 반환" style="html=1;verticalAlign=bottom;endArrow=open;dashed=1;endSize=8;curved=0;rounded=0;exitX=0;exitY=1;exitDx=0;exitDy=-5;" edge="1" source="whQVbNXMnP0Vr2NTKK1I-3" target="whQVbNXMnP0Vr2NTKK1I-1" parent="1">
          <mxGeometry relative="1" as="geometry">
            <mxPoint x="150" y="435" as="targetPoint" />
          </mxGeometry>
        </mxCell>
      </root>
    </mxGraphModel>
  </diagram>
  <diagram id="zj5lEtpTNk7ot0Wjn7VR" name="할 일 추가 SD">
    <mxGraphModel dx="1434" dy="836" grid="1" gridSize="10" guides="1" tooltips="1" connect="1" arrows="1" fold="1" page="1" pageScale="1" pageWidth="827" pageHeight="1169" math="0" shadow="0">
      <root>
        <mxCell id="0" />
        <mxCell id="1" parent="0" />
        <mxCell id="nPYTbTZY8cpDMNdj8__i-1" value="클라이언트" style="shape=umlLifeline;perimeter=lifelinePerimeter;whiteSpace=wrap;html=1;container=1;dropTarget=0;collapsible=0;recursiveResize=0;outlineConnect=0;portConstraint=eastwest;newEdgeStyle={&quot;curved&quot;:0,&quot;rounded&quot;:0};" vertex="1" parent="1">
          <mxGeometry x="100" y="280" width="100" height="300" as="geometry" />
        </mxCell>
        <mxCell id="nPYTbTZY8cpDMNdj8__i-2" value="서버" style="shape=umlLifeline;perimeter=lifelinePerimeter;whiteSpace=wrap;html=1;container=1;dropTarget=0;collapsible=0;recursiveResize=0;outlineConnect=0;portConstraint=eastwest;newEdgeStyle={&quot;curved&quot;:0,&quot;rounded&quot;:0};" vertex="1" parent="1">
          <mxGeometry x="630" y="280" width="100" height="300" as="geometry" />
        </mxCell>
        <mxCell id="nPYTbTZY8cpDMNdj8__i-3" value="" style="html=1;points=[[0,0,0,0,5],[0,1,0,0,-5],[1,0,0,0,5],[1,1,0,0,-5]];perimeter=orthogonalPerimeter;outlineConnect=0;targetShapes=umlLifeline;portConstraint=eastwest;newEdgeStyle={&quot;curved&quot;:0,&quot;rounded&quot;:0};" vertex="1" parent="nPYTbTZY8cpDMNdj8__i-2">
          <mxGeometry x="45" y="80" width="10" height="200" as="geometry" />
        </mxCell>
        <mxCell id="nPYTbTZY8cpDMNdj8__i-4" value="" style="html=1;points=[[0,0,0,0,5],[0,1,0,0,-5],[1,0,0,0,5],[1,1,0,0,-5]];perimeter=orthogonalPerimeter;outlineConnect=0;targetShapes=umlLifeline;portConstraint=eastwest;newEdgeStyle={&quot;curved&quot;:0,&quot;rounded&quot;:0};" vertex="1" parent="nPYTbTZY8cpDMNdj8__i-2">
          <mxGeometry x="50" y="130" width="10" height="40" as="geometry" />
        </mxCell>
        <mxCell id="nPYTbTZY8cpDMNdj8__i-5" value="해당 팀의 팀원인지 검증" style="html=1;align=left;spacingLeft=2;endArrow=block;rounded=0;edgeStyle=orthogonalEdgeStyle;curved=0;rounded=0;" edge="1" parent="nPYTbTZY8cpDMNdj8__i-2" target="nPYTbTZY8cpDMNdj8__i-4">
          <mxGeometry relative="1" as="geometry">
            <mxPoint x="55" y="110" as="sourcePoint" />
            <Array as="points">
              <mxPoint x="85" y="140" />
            </Array>
          </mxGeometry>
        </mxCell>
        <mxCell id="nPYTbTZY8cpDMNdj8__i-6" value="할일 추가 요청 (세션 ID, 일정 ID, 할 일 내용)" style="html=1;verticalAlign=bottom;endArrow=block;curved=0;rounded=0;entryX=0;entryY=0;entryDx=0;entryDy=5;" edge="1" target="nPYTbTZY8cpDMNdj8__i-3" parent="1">
          <mxGeometry relative="1" as="geometry">
            <mxPoint x="150" y="365" as="sourcePoint" />
          </mxGeometry>
        </mxCell>
        <mxCell id="nPYTbTZY8cpDMNdj8__i-7" value="할 일 추가 성공 여부 반환" style="html=1;verticalAlign=bottom;endArrow=open;dashed=1;endSize=8;curved=0;rounded=0;exitX=0;exitY=1;exitDx=0;exitDy=-5;" edge="1" source="nPYTbTZY8cpDMNdj8__i-3" target="nPYTbTZY8cpDMNdj8__i-1" parent="1">
          <mxGeometry relative="1" as="geometry">
            <mxPoint x="150" y="435" as="targetPoint" />
          </mxGeometry>
        </mxCell>
      </root>
    </mxGraphModel>
  </diagram>
  <diagram id="7TBnySr75sT5_MHDmy8K" name="할 일 조회 SD">
    <mxGraphModel dx="1434" dy="836" grid="1" gridSize="10" guides="1" tooltips="1" connect="1" arrows="1" fold="1" page="1" pageScale="1" pageWidth="827" pageHeight="1169" math="0" shadow="0">
      <root>
        <mxCell id="0" />
        <mxCell id="1" parent="0" />
        <mxCell id="6dSbCevz0JuFjTxqfHcl-1" value="클라이언트" style="shape=umlLifeline;perimeter=lifelinePerimeter;whiteSpace=wrap;html=1;container=1;dropTarget=0;collapsible=0;recursiveResize=0;outlineConnect=0;portConstraint=eastwest;newEdgeStyle={&quot;curved&quot;:0,&quot;rounded&quot;:0};" vertex="1" parent="1">
          <mxGeometry x="100" y="280" width="100" height="300" as="geometry" />
        </mxCell>
        <mxCell id="6dSbCevz0JuFjTxqfHcl-2" value="서버" style="shape=umlLifeline;perimeter=lifelinePerimeter;whiteSpace=wrap;html=1;container=1;dropTarget=0;collapsible=0;recursiveResize=0;outlineConnect=0;portConstraint=eastwest;newEdgeStyle={&quot;curved&quot;:0,&quot;rounded&quot;:0};" vertex="1" parent="1">
          <mxGeometry x="630" y="280" width="100" height="300" as="geometry" />
        </mxCell>
        <mxCell id="6dSbCevz0JuFjTxqfHcl-3" value="" style="html=1;points=[[0,0,0,0,5],[0,1,0,0,-5],[1,0,0,0,5],[1,1,0,0,-5]];perimeter=orthogonalPerimeter;outlineConnect=0;targetShapes=umlLifeline;portConstraint=eastwest;newEdgeStyle={&quot;curved&quot;:0,&quot;rounded&quot;:0};" vertex="1" parent="6dSbCevz0JuFjTxqfHcl-2">
          <mxGeometry x="45" y="80" width="10" height="200" as="geometry" />
        </mxCell>
        <mxCell id="6dSbCevz0JuFjTxqfHcl-4" value="" style="html=1;points=[[0,0,0,0,5],[0,1,0,0,-5],[1,0,0,0,5],[1,1,0,0,-5]];perimeter=orthogonalPerimeter;outlineConnect=0;targetShapes=umlLifeline;portConstraint=eastwest;newEdgeStyle={&quot;curved&quot;:0,&quot;rounded&quot;:0};" vertex="1" parent="6dSbCevz0JuFjTxqfHcl-2">
          <mxGeometry x="50" y="130" width="10" height="40" as="geometry" />
        </mxCell>
        <mxCell id="6dSbCevz0JuFjTxqfHcl-5" value="해당 팀의 팀원인지 검증" style="html=1;align=left;spacingLeft=2;endArrow=block;rounded=0;edgeStyle=orthogonalEdgeStyle;curved=0;rounded=0;" edge="1" parent="6dSbCevz0JuFjTxqfHcl-2" target="6dSbCevz0JuFjTxqfHcl-4">
          <mxGeometry relative="1" as="geometry">
            <mxPoint x="55" y="110" as="sourcePoint" />
            <Array as="points">
              <mxPoint x="85" y="140" />
            </Array>
          </mxGeometry>
        </mxCell>
        <mxCell id="6dSbCevz0JuFjTxqfHcl-6" value="할 일 조회 요청 (세션 ID, 일정 ID)" style="html=1;verticalAlign=bottom;endArrow=block;curved=0;rounded=0;entryX=0;entryY=0;entryDx=0;entryDy=5;" edge="1" target="6dSbCevz0JuFjTxqfHcl-3" parent="1">
          <mxGeometry relative="1" as="geometry">
            <mxPoint x="150" y="365" as="sourcePoint" />
          </mxGeometry>
        </mxCell>
        <mxCell id="6dSbCevz0JuFjTxqfHcl-7" value="해당 일정에 등록된 모든 할 일 리스트 반환" style="html=1;verticalAlign=bottom;endArrow=open;dashed=1;endSize=8;curved=0;rounded=0;exitX=0;exitY=1;exitDx=0;exitDy=-5;" edge="1" source="6dSbCevz0JuFjTxqfHcl-3" target="6dSbCevz0JuFjTxqfHcl-1" parent="1">
          <mxGeometry relative="1" as="geometry">
            <mxPoint x="150" y="435" as="targetPoint" />
          </mxGeometry>
        </mxCell>
      </root>
    </mxGraphModel>
  </diagram>
  <diagram id="GxMIjHWIituRSAO3Bmdb" name="할 일 수정 SD">
    <mxGraphModel dx="1434" dy="836" grid="1" gridSize="10" guides="1" tooltips="1" connect="1" arrows="1" fold="1" page="1" pageScale="1" pageWidth="827" pageHeight="1169" math="0" shadow="0">
      <root>
        <mxCell id="0" />
        <mxCell id="1" parent="0" />
        <mxCell id="o2R1b4iwcYfOhO7Uthl_-1" value="클라이언트" style="shape=umlLifeline;perimeter=lifelinePerimeter;whiteSpace=wrap;html=1;container=1;dropTarget=0;collapsible=0;recursiveResize=0;outlineConnect=0;portConstraint=eastwest;newEdgeStyle={&quot;curved&quot;:0,&quot;rounded&quot;:0};" vertex="1" parent="1">
          <mxGeometry x="100" y="280" width="100" height="300" as="geometry" />
        </mxCell>
        <mxCell id="o2R1b4iwcYfOhO7Uthl_-2" value="서버" style="shape=umlLifeline;perimeter=lifelinePerimeter;whiteSpace=wrap;html=1;container=1;dropTarget=0;collapsible=0;recursiveResize=0;outlineConnect=0;portConstraint=eastwest;newEdgeStyle={&quot;curved&quot;:0,&quot;rounded&quot;:0};" vertex="1" parent="1">
          <mxGeometry x="630" y="280" width="100" height="300" as="geometry" />
        </mxCell>
        <mxCell id="o2R1b4iwcYfOhO7Uthl_-3" value="" style="html=1;points=[[0,0,0,0,5],[0,1,0,0,-5],[1,0,0,0,5],[1,1,0,0,-5]];perimeter=orthogonalPerimeter;outlineConnect=0;targetShapes=umlLifeline;portConstraint=eastwest;newEdgeStyle={&quot;curved&quot;:0,&quot;rounded&quot;:0};" vertex="1" parent="o2R1b4iwcYfOhO7Uthl_-2">
          <mxGeometry x="45" y="80" width="10" height="200" as="geometry" />
        </mxCell>
        <mxCell id="o2R1b4iwcYfOhO7Uthl_-4" value="" style="html=1;points=[[0,0,0,0,5],[0,1,0,0,-5],[1,0,0,0,5],[1,1,0,0,-5]];perimeter=orthogonalPerimeter;outlineConnect=0;targetShapes=umlLifeline;portConstraint=eastwest;newEdgeStyle={&quot;curved&quot;:0,&quot;rounded&quot;:0};" vertex="1" parent="o2R1b4iwcYfOhO7Uthl_-2">
          <mxGeometry x="50" y="130" width="10" height="40" as="geometry" />
        </mxCell>
        <mxCell id="o2R1b4iwcYfOhO7Uthl_-5" value="할 일의 작성자인지 검증" style="html=1;align=left;spacingLeft=2;endArrow=block;rounded=0;edgeStyle=orthogonalEdgeStyle;curved=0;rounded=0;" edge="1" parent="o2R1b4iwcYfOhO7Uthl_-2" target="o2R1b4iwcYfOhO7Uthl_-4">
          <mxGeometry relative="1" as="geometry">
            <mxPoint x="55" y="110" as="sourcePoint" />
            <Array as="points">
              <mxPoint x="85" y="140" />
            </Array>
          </mxGeometry>
        </mxCell>
        <mxCell id="o2R1b4iwcYfOhO7Uthl_-6" value="할 일 수정 요청(세션 ID, 할 일 ID)" style="html=1;verticalAlign=bottom;endArrow=block;curved=0;rounded=0;entryX=0;entryY=0;entryDx=0;entryDy=5;" edge="1" target="o2R1b4iwcYfOhO7Uthl_-3" parent="1">
          <mxGeometry relative="1" as="geometry">
            <mxPoint x="150" y="365" as="sourcePoint" />
          </mxGeometry>
        </mxCell>
        <mxCell id="o2R1b4iwcYfOhO7Uthl_-7" value="할 일 수정 성공 여부 반환" style="html=1;verticalAlign=bottom;endArrow=open;dashed=1;endSize=8;curved=0;rounded=0;exitX=0;exitY=1;exitDx=0;exitDy=-5;" edge="1" source="o2R1b4iwcYfOhO7Uthl_-3" target="o2R1b4iwcYfOhO7Uthl_-1" parent="1">
          <mxGeometry relative="1" as="geometry">
            <mxPoint x="150" y="435" as="targetPoint" />
          </mxGeometry>
        </mxCell>
      </root>
    </mxGraphModel>
  </diagram>
  <diagram id="zr9zpOjlmyppuoGxlQRj" name="할 일 삭제 SD">
    <mxGraphModel dx="1434" dy="836" grid="1" gridSize="10" guides="1" tooltips="1" connect="1" arrows="1" fold="1" page="1" pageScale="1" pageWidth="827" pageHeight="1169" math="0" shadow="0">
      <root>
        <mxCell id="0" />
        <mxCell id="1" parent="0" />
        <mxCell id="2aUTU86hY4aI5ePp0iyN-1" value="클라이언트" style="shape=umlLifeline;perimeter=lifelinePerimeter;whiteSpace=wrap;html=1;container=1;dropTarget=0;collapsible=0;recursiveResize=0;outlineConnect=0;portConstraint=eastwest;newEdgeStyle={&quot;curved&quot;:0,&quot;rounded&quot;:0};" vertex="1" parent="1">
          <mxGeometry x="100" y="280" width="100" height="300" as="geometry" />
        </mxCell>
        <mxCell id="2aUTU86hY4aI5ePp0iyN-2" value="서버" style="shape=umlLifeline;perimeter=lifelinePerimeter;whiteSpace=wrap;html=1;container=1;dropTarget=0;collapsible=0;recursiveResize=0;outlineConnect=0;portConstraint=eastwest;newEdgeStyle={&quot;curved&quot;:0,&quot;rounded&quot;:0};" vertex="1" parent="1">
          <mxGeometry x="630" y="280" width="100" height="300" as="geometry" />
        </mxCell>
        <mxCell id="2aUTU86hY4aI5ePp0iyN-3" value="" style="html=1;points=[[0,0,0,0,5],[0,1,0,0,-5],[1,0,0,0,5],[1,1,0,0,-5]];perimeter=orthogonalPerimeter;outlineConnect=0;targetShapes=umlLifeline;portConstraint=eastwest;newEdgeStyle={&quot;curved&quot;:0,&quot;rounded&quot;:0};" vertex="1" parent="2aUTU86hY4aI5ePp0iyN-2">
          <mxGeometry x="45" y="80" width="10" height="200" as="geometry" />
        </mxCell>
        <mxCell id="2aUTU86hY4aI5ePp0iyN-4" value="" style="html=1;points=[[0,0,0,0,5],[0,1,0,0,-5],[1,0,0,0,5],[1,1,0,0,-5]];perimeter=orthogonalPerimeter;outlineConnect=0;targetShapes=umlLifeline;portConstraint=eastwest;newEdgeStyle={&quot;curved&quot;:0,&quot;rounded&quot;:0};" vertex="1" parent="2aUTU86hY4aI5ePp0iyN-2">
          <mxGeometry x="50" y="130" width="10" height="40" as="geometry" />
        </mxCell>
        <mxCell id="2aUTU86hY4aI5ePp0iyN-5" value="할 일의 작성자인지 검증" style="html=1;align=left;spacingLeft=2;endArrow=block;rounded=0;edgeStyle=orthogonalEdgeStyle;curved=0;rounded=0;" edge="1" parent="2aUTU86hY4aI5ePp0iyN-2" target="2aUTU86hY4aI5ePp0iyN-4">
          <mxGeometry relative="1" as="geometry">
            <mxPoint x="55" y="110" as="sourcePoint" />
            <Array as="points">
              <mxPoint x="85" y="140" />
            </Array>
          </mxGeometry>
        </mxCell>
        <mxCell id="2aUTU86hY4aI5ePp0iyN-6" value="할 일 삭제 요청(세션 ID, 할 일 ID)" style="html=1;verticalAlign=bottom;endArrow=block;curved=0;rounded=0;entryX=0;entryY=0;entryDx=0;entryDy=5;" edge="1" target="2aUTU86hY4aI5ePp0iyN-3" parent="1">
          <mxGeometry relative="1" as="geometry">
            <mxPoint x="150" y="365" as="sourcePoint" />
          </mxGeometry>
        </mxCell>
        <mxCell id="2aUTU86hY4aI5ePp0iyN-7" value="할 일 삭제 성공 여부 반환" style="html=1;verticalAlign=bottom;endArrow=open;dashed=1;endSize=8;curved=0;rounded=0;exitX=0;exitY=1;exitDx=0;exitDy=-5;" edge="1" source="2aUTU86hY4aI5ePp0iyN-3" target="2aUTU86hY4aI5ePp0iyN-1" parent="1">
          <mxGeometry relative="1" as="geometry">
            <mxPoint x="150" y="435" as="targetPoint" />
          </mxGeometry>
        </mxCell>
      </root>
    </mxGraphModel>
  </diagram>
</mxfile>
